# xmcd CD database file
#
# Track frame offsets:
#	150
#	38529
#	73938
#	105396
#	134690
#	173325
#	201159
#	221913
#
# Disc length: 3410 seconds
#
# Revision: 0
# Processed by: cddbd v1.5.1PL2 Copyright (c) Steve Scherf et al.
# Submitted via: CDex 1.51
#
DISCID=720d5008
DTITLE=The Coalition - Naked Movies
DYEAR=2004
DGENRE=Jazz
TTITLE0=Tuna Whiskey
TTITLE1=Naked Movies
TTITLE2=The Loungey One
TTITLE3=33-
TTITLE4=Beatnik Bob
TTITLE5=C0ke
TTITLE6=Word from Ultster County
TTITLE7=Drum Sandwich
EXTD=YEAR: 2004
EXTT0=
EXTT1=
EXTT2=
EXTT3=
EXTT4=
EXTT5=
EXTT6=
EXTT7=
PLAYORDER=
